<?xml version="1.0" encoding="UTF-8"?>
<svg width="700pt" height="700pt" version="1.1" viewBox="0 0 700 700" xmlns="http://www.w3.org/2000/svg" xmlns:xlink="http://www.w3.org/1999/xlink">
 <defs>
  <symbol id="w" overflow="visible">
   <path d="m6.25-0.375c-0.32422 0.16797-0.66406 0.29297-1.0156 0.375-0.34375 0.082031-0.70312 0.125-1.0781 0.125-1.1367 0-2.0391-0.3125-2.7031-0.9375-0.65625-0.63281-0.98438-1.4922-0.98438-2.5781 0-1.0938 0.32812-1.9531 0.98438-2.5781 0.66406-0.63281 1.5664-0.95312 2.7031-0.95312 0.375 0 0.73438 0.042969 1.0781 0.125 0.35156 0.085937 0.69141 0.21094 1.0156 0.375v1.4062c-0.32422-0.21875-0.64844-0.37891-0.96875-0.48438-0.3125-0.10156-0.64062-0.15625-0.98438-0.15625-0.625 0-1.1211 0.20312-1.4844 0.60938-0.35547 0.39844-0.53125 0.94922-0.53125 1.6562 0 0.69922 0.17578 1.25 0.53125 1.6562 0.36328 0.39844 0.85938 0.59375 1.4844 0.59375 0.34375 0 0.67188-0.050781 0.98438-0.15625 0.32031-0.10156 0.64453-0.26562 0.96875-0.48438z"/>
  </symbol>
  <symbol id="c" overflow="visible">
   <path d="m4.5781-3.7188c-0.14844-0.0625-0.29297-0.10938-0.4375-0.14062-0.13672-0.03125-0.27734-0.046875-0.42188-0.046875-0.41797 0-0.74219 0.13672-0.96875 0.40625-0.23047 0.26172-0.34375 0.64844-0.34375 1.1562v2.3438h-1.625v-5.0938h1.625v0.82812c0.21875-0.33203 0.46094-0.57031 0.73438-0.71875 0.26953-0.15625 0.59375-0.23438 0.96875-0.23438 0.050781 0 0.10938 0.007812 0.17188 0.015625 0.070312 0 0.16406 0.007813 0.28125 0.015625z"/>
  </symbol>
  <symbol id="b" overflow="visible">
   <path d="m5.875-2.5625v0.46875h-3.8125c0.039062 0.375 0.17578 0.66406 0.40625 0.85938 0.23828 0.1875 0.57031 0.28125 1 0.28125 0.34375 0 0.69141-0.046875 1.0469-0.14062 0.36328-0.10156 0.73828-0.25781 1.125-0.46875v1.25c-0.38672 0.14844-0.77344 0.25781-1.1562 0.32812-0.38672 0.070312-0.77344 0.10938-1.1562 0.10938-0.92969 0-1.6484-0.23438-2.1562-0.70312-0.51172-0.46875-0.76562-1.125-0.76562-1.9688 0-0.83203 0.25-1.4844 0.75-1.9531 0.5-0.47656 1.1914-0.71875 2.0781-0.71875 0.80078 0 1.4414 0.24219 1.9219 0.71875 0.47656 0.48047 0.71875 1.125 0.71875 1.9375zm-1.6719-0.54688c0-0.3125-0.09375-0.5625-0.28125-0.75-0.17969-0.1875-0.41406-0.28125-0.70312-0.28125-0.3125 0-0.57031 0.089844-0.76562 0.26562-0.19922 0.17969-0.32422 0.43359-0.375 0.76562z"/>
  </symbol>
  <symbol id="f" overflow="visible">
   <path d="m3.0625-2.2969c-0.33594 0-0.58984 0.058594-0.76562 0.17188-0.16797 0.11719-0.25 0.28906-0.25 0.51562 0 0.21094 0.066406 0.37109 0.20312 0.48438 0.13281 0.11719 0.32812 0.17188 0.57812 0.17188 0.30078 0 0.55469-0.10938 0.76562-0.32812 0.21875-0.21875 0.32812-0.49219 0.32812-0.82812v-0.1875zm2.5-0.60938v2.9062h-1.6406v-0.75c-0.21875 0.30469-0.46875 0.52734-0.75 0.67188-0.27344 0.13281-0.60156 0.20312-0.98438 0.20312-0.53125 0-0.96484-0.14844-1.2969-0.45312-0.32422-0.3125-0.48438-0.71094-0.48438-1.2031 0-0.59375 0.20312-1.0312 0.60938-1.3125 0.41406-0.28125 1.0625-0.42188 1.9375-0.42188h0.96875v-0.125c0-0.25781-0.10547-0.44531-0.3125-0.5625-0.19922-0.125-0.51562-0.1875-0.95312-0.1875-0.34375 0-0.66797 0.039063-0.96875 0.10938-0.30469 0.0625-0.58594 0.16797-0.84375 0.3125v-1.25c0.35156-0.082031 0.70312-0.14453 1.0469-0.1875 0.35156-0.039062 0.70703-0.0625 1.0625-0.0625 0.92578 0 1.5938 0.18359 2 0.54688 0.40625 0.35547 0.60938 0.94531 0.60938 1.7656z"/>
  </symbol>
  <symbol id="d" overflow="visible">
   <path d="m2.5625-6.5469v1.4531h1.6875v1.1562h-1.6875v2.1719c0 0.23047 0.046875 0.38672 0.14062 0.46875 0.09375 0.085937 0.28125 0.125 0.5625 0.125h0.84375v1.1719h-1.4062c-0.64844 0-1.1055-0.13281-1.375-0.40625-0.26172-0.26953-0.39062-0.72266-0.39062-1.3594v-2.1719h-0.8125v-1.1562h0.8125v-1.4531z"/>
  </symbol>
  <symbol id="j" overflow="visible">
   <path d="m4.25-4.3594v-2.7344h1.6406v7.0938h-1.6406v-0.73438c-0.21875 0.30469-0.46484 0.52344-0.73438 0.65625-0.27344 0.13281-0.58594 0.20312-0.9375 0.20312-0.63672 0-1.1562-0.24219-1.5625-0.73438-0.39844-0.5-0.59375-1.1445-0.59375-1.9375 0-0.78125 0.19531-1.4219 0.59375-1.9219 0.40625-0.5 0.92578-0.75 1.5625-0.75 0.35156 0 0.66406 0.074219 0.9375 0.21875 0.26953 0.13672 0.51562 0.35156 0.73438 0.64062zm-1.0781 3.3125c0.35156 0 0.61719-0.125 0.79688-0.375 0.1875-0.25781 0.28125-0.63281 0.28125-1.125 0-0.48828-0.09375-0.85938-0.28125-1.1094-0.17969-0.25781-0.44531-0.39062-0.79688-0.39062-0.34375 0-0.60938 0.13281-0.79688 0.39062-0.17969 0.25-0.26562 0.62109-0.26562 1.1094 0 0.49219 0.085937 0.86719 0.26562 1.125 0.1875 0.25 0.45312 0.375 0.79688 0.375z"/>
  </symbol>
  <symbol id="i" overflow="visible">
   <path d="m3.5-1.0469c0.34375 0 0.60938-0.125 0.79688-0.375 0.1875-0.25781 0.28125-0.63281 0.28125-1.125 0-0.48828-0.09375-0.85938-0.28125-1.1094-0.1875-0.25781-0.45312-0.39062-0.79688-0.39062-0.35547 0-0.625 0.13281-0.8125 0.39062-0.1875 0.26172-0.28125 0.63281-0.28125 1.1094 0 0.48047 0.09375 0.85156 0.28125 1.1094 0.1875 0.26172 0.45703 0.39062 0.8125 0.39062zm-1.0938-3.3125c0.22656-0.28906 0.47656-0.50391 0.75-0.64062 0.28125-0.14453 0.59766-0.21875 0.95312-0.21875 0.625 0 1.1406 0.25 1.5469 0.75s0.60938 1.1406 0.60938 1.9219c0 0.79297-0.20312 1.4375-0.60938 1.9375-0.40625 0.49219-0.92188 0.73438-1.5469 0.73438-0.35547 0-0.67188-0.070312-0.95312-0.20312-0.27344-0.14453-0.52344-0.36328-0.75-0.65625v0.73438h-1.625v-7.0938h1.625z"/>
  </symbol>
  <symbol id="h" overflow="visible">
   <path d="m0.10938-5.0938h1.6406l1.3594 3.4531 1.1719-3.4531h1.625l-2.1406 5.5781c-0.21875 0.5625-0.47656 0.95703-0.76562 1.1875-0.28125 0.22656-0.65625 0.34375-1.125 0.34375h-0.9375v-1.0781h0.5c0.28125 0 0.48438-0.046875 0.60938-0.14062 0.125-0.085937 0.22266-0.23438 0.29688-0.45312l0.046875-0.14062z"/>
  </symbol>
  <symbol id="g" overflow="visible">
   <path d="m4.9844-1.2344h-2.75l-0.42188 1.2344h-1.7656l2.5156-6.7969h2.0938l2.5156 6.7969h-1.7656zm-2.3125-1.2656h1.875l-0.9375-2.7031z"/>
  </symbol>
  <symbol id="e" overflow="visible">
   <path d="m5.9062-3.1094v3.1094h-1.6406v-2.375c0-0.4375-0.011719-0.73828-0.03125-0.90625-0.011719-0.16406-0.042969-0.28906-0.09375-0.375-0.0625-0.10156-0.15234-0.1875-0.26562-0.25-0.10547-0.0625-0.23047-0.09375-0.375-0.09375-0.33594 0-0.60156 0.13672-0.79688 0.40625-0.19922 0.26172-0.29688 0.62109-0.29688 1.0781v2.5156h-1.625v-5.0938h1.625v0.73438c0.25-0.28906 0.50781-0.50391 0.78125-0.64062 0.28125-0.14453 0.58594-0.21875 0.92188-0.21875 0.59375 0 1.0391 0.18359 1.3438 0.54688 0.30078 0.35547 0.45312 0.875 0.45312 1.5625z"/>
  </symbol>
  <symbol id="v" overflow="visible">
   <path d="m4.25-0.85938c-0.21875 0.29297-0.46484 0.51172-0.73438 0.65625-0.27344 0.13672-0.58594 0.20312-0.9375 0.20312-0.625 0-1.1406-0.24219-1.5469-0.73438-0.40625-0.48828-0.60938-1.1133-0.60938-1.875 0-0.75781 0.20312-1.3828 0.60938-1.875 0.40625-0.48828 0.92188-0.73438 1.5469-0.73438 0.35156 0 0.66406 0.074219 0.9375 0.21875 0.26953 0.13672 0.51562 0.35547 0.73438 0.65625v-0.75h1.6406v4.5781c0 0.82031-0.26172 1.4453-0.78125 1.875-0.51172 0.4375-1.2617 0.65625-2.25 0.65625-0.3125 0-0.62109-0.027344-0.92188-0.078125-0.29297-0.042969-0.58984-0.11719-0.89062-0.21875v-1.2656c0.28125 0.15625 0.55469 0.27344 0.82812 0.35938 0.28125 0.082031 0.55469 0.125 0.82812 0.125 0.53125 0 0.92188-0.12109 1.1719-0.35938 0.25-0.23047 0.375-0.59375 0.375-1.0938zm-1.0781-3.1875c-0.33594 0-0.59375 0.125-0.78125 0.375s-0.28125 0.60547-0.28125 1.0625c0 0.46875 0.085937 0.82422 0.26562 1.0625 0.1875 0.24219 0.45312 0.35938 0.79688 0.35938s0.60938-0.125 0.79688-0.375 0.28125-0.59766 0.28125-1.0469c0-0.45703-0.09375-0.8125-0.28125-1.0625s-0.45312-0.375-0.79688-0.375z"/>
  </symbol>
  <symbol id="u" overflow="visible">
   <path d="m0.78125-7.0938h1.625v7.0938h-1.625z"/>
  </symbol>
  <symbol id="a" overflow="visible">
   <path d="m3.2188-4.0625c-0.36719 0-0.64844 0.13281-0.84375 0.39062-0.1875 0.26172-0.28125 0.63672-0.28125 1.125 0 0.49219 0.09375 0.86719 0.28125 1.125 0.19531 0.26172 0.47656 0.39062 0.84375 0.39062 0.35156 0 0.625-0.12891 0.8125-0.39062 0.1875-0.25781 0.28125-0.63281 0.28125-1.125 0-0.48828-0.09375-0.86328-0.28125-1.125-0.1875-0.25781-0.46094-0.39062-0.8125-0.39062zm0-1.1562c0.875 0 1.5547 0.24219 2.0469 0.71875 0.48828 0.46875 0.73438 1.1211 0.73438 1.9531 0 0.84375-0.24609 1.5-0.73438 1.9688-0.49219 0.46875-1.1719 0.70312-2.0469 0.70312-0.88672 0-1.5781-0.23438-2.0781-0.70312-0.49219-0.46875-0.73438-1.125-0.73438-1.9688 0-0.83203 0.24219-1.4844 0.73438-1.9531 0.5-0.47656 1.1914-0.71875 2.0781-0.71875z"/>
  </symbol>
  <symbol id="t" overflow="visible">
   <path d="m0.046875-6.7969h6.2656v1.3281h-2.25v5.4688h-1.75v-5.4688h-2.2656z"/>
  </symbol>
  <symbol id="s" overflow="visible">
   <path d="m0.78125-5.0938h1.625v5.0938h-1.625zm0-2h1.625v1.3438h-1.625z"/>
  </symbol>
  <symbol id="r" overflow="visible">
   <path d="m4.1406-7.0938v1.0781h-0.90625c-0.23047 0-0.39062 0.042969-0.48438 0.125-0.085938 0.085937-0.125 0.23047-0.125 0.4375v0.35938h1.3906v1.1562h-1.3906v3.9375h-1.6406v-3.9375h-0.8125v-1.1562h0.8125v-0.35938c0-0.5625 0.15625-0.97266 0.46875-1.2344 0.3125-0.26953 0.78906-0.40625 1.4375-0.40625z"/>
  </symbol>
  <symbol id="q" overflow="visible">
   <path d="m5.5156-4.25c0.20703-0.32031 0.45312-0.5625 0.73438-0.71875 0.28125-0.16406 0.59375-0.25 0.9375-0.25 0.58203 0 1.0234 0.18359 1.3281 0.54688 0.3125 0.35547 0.46875 0.875 0.46875 1.5625v3.1094h-1.6406v-2.6562-0.125-0.1875c0-0.35156-0.054688-0.61328-0.15625-0.78125-0.10547-0.16406-0.27734-0.25-0.51562-0.25-0.30469 0-0.54297 0.13281-0.71875 0.39062-0.16797 0.25-0.25 0.62109-0.25 1.1094v2.5h-1.6406v-2.6562c0-0.5625-0.054688-0.92578-0.15625-1.0938-0.09375-0.16406-0.26562-0.25-0.51562-0.25-0.3125 0-0.55859 0.13281-0.73438 0.39062-0.16797 0.26172-0.25 0.625-0.25 1.0938v2.5156h-1.625v-5.0938h1.625v0.73438c0.20703-0.28125 0.44141-0.49219 0.70312-0.64062 0.25781-0.14453 0.54688-0.21875 0.85938-0.21875 0.34375 0 0.64844 0.085938 0.92188 0.25 0.26953 0.16797 0.47656 0.40625 0.625 0.71875z"/>
  </symbol>
  <symbol id="p" overflow="visible">
   <path d="m5.9062-3.1094v3.1094h-1.6406v-2.375c0-0.4375-0.011719-0.73828-0.03125-0.90625-0.011719-0.16406-0.042969-0.28906-0.09375-0.375-0.0625-0.10156-0.15234-0.1875-0.26562-0.25-0.10547-0.0625-0.23047-0.09375-0.375-0.09375-0.33594 0-0.60156 0.13672-0.79688 0.40625-0.19922 0.26172-0.29688 0.62109-0.29688 1.0781v2.5156h-1.625v-7.0938h1.625v2.7344c0.25-0.28906 0.50781-0.50391 0.78125-0.64062 0.28125-0.14453 0.58594-0.21875 0.92188-0.21875 0.59375 0 1.0391 0.18359 1.3438 0.54688 0.30078 0.35547 0.45312 0.875 0.45312 1.5625z"/>
  </symbol>
  <symbol id="o" overflow="visible">
   <path d="m0.85938-6.7969h1.9531l2.4688 4.6562v-4.6562h1.6719v6.7969h-1.9688l-2.4688-4.6719v4.6719h-1.6562z"/>
  </symbol>
  <symbol id="n" overflow="visible">
   <path d="m0.73438-1.9844v-3.1094h1.6406v0.5c0 0.28125-0.007812 0.63281-0.015625 1.0469v0.82812c0 0.41797 0.007813 0.71484 0.03125 0.89062 0.019531 0.17969 0.054687 0.30859 0.10938 0.39062 0.0625 0.10547 0.14453 0.1875 0.25 0.25 0.11328 0.054688 0.24219 0.078125 0.39062 0.078125 0.33203 0 0.59766-0.12891 0.79688-0.39062 0.19531-0.25781 0.29688-0.61719 0.29688-1.0781v-2.5156h1.625v5.0938h-1.625v-0.73438c-0.25 0.29297-0.51562 0.51172-0.79688 0.65625-0.27344 0.13281-0.57422 0.20312-0.90625 0.20312-0.58594 0-1.0312-0.17578-1.3438-0.53125-0.30469-0.36328-0.45312-0.89062-0.45312-1.5781z"/>
  </symbol>
  <symbol id="m" overflow="visible">
   <path d="m0.85938-6.7969h2.9062c0.86328 0 1.5234 0.19531 1.9844 0.57812 0.46875 0.38672 0.70312 0.93359 0.70312 1.6406 0 0.71094-0.23438 1.2578-0.70312 1.6406-0.46094 0.38672-1.1211 0.57812-1.9844 0.57812h-1.1562v2.3594h-1.75zm1.75 1.2656v1.9062h0.96875c0.34375 0 0.60156-0.082031 0.78125-0.25 0.1875-0.16406 0.28125-0.39844 0.28125-0.70312 0-0.30078-0.09375-0.53516-0.28125-0.70312-0.17969-0.16406-0.4375-0.25-0.78125-0.25z"/>
  </symbol>
  <symbol id="l" overflow="visible">
   <path d="m0.78125-5.0938h1.625v5c0 0.6875-0.16406 1.207-0.48438 1.5625-0.32422 0.36328-0.79688 0.54688-1.4219 0.54688h-0.8125v-1.0781h0.28125c0.3125 0 0.52344-0.070312 0.64062-0.20312 0.11328-0.13672 0.17188-0.41406 0.17188-0.82812zm0-2h1.625v1.3438h-1.625z"/>
  </symbol>
  <symbol id="k" overflow="visible">
   <path d="m4.9062-4.9375v1.3281c-0.21875-0.15625-0.44531-0.26953-0.67188-0.34375-0.21875-0.070313-0.44922-0.10938-0.6875-0.10938-0.46094 0-0.82031 0.13672-1.0781 0.40625-0.25 0.26172-0.375 0.63281-0.375 1.1094 0 0.48047 0.125 0.85547 0.375 1.125 0.25781 0.26172 0.61719 0.39062 1.0781 0.39062 0.25 0 0.48828-0.035156 0.71875-0.10938 0.22656-0.082031 0.44141-0.19531 0.64062-0.34375v1.3281c-0.26172 0.09375-0.52344 0.16016-0.78125 0.20312-0.26172 0.050781-0.52344 0.078125-0.78125 0.078125-0.92969 0-1.6523-0.23438-2.1719-0.70312-0.51172-0.46875-0.76562-1.125-0.76562-1.9688s0.25391-1.5 0.76562-1.9688c0.51953-0.46875 1.2422-0.70312 2.1719-0.70312 0.25781 0 0.51953 0.027344 0.78125 0.078125 0.25781 0.042969 0.51953 0.10938 0.78125 0.20312z"/>
  </symbol>
 </defs>
 <g>
  <path d="m548.8 190.4c22.027 0 40.133 17.922 40.133 40.133v99.121c0 22.027-17.922 40.133-40.133 40.133h-397.6c-22.027 0-40.133-17.922-40.133-40.133v-99.121c0-22.027 17.922-40.133 40.133-40.133h397.6m0-14.934h-397.6c-30.426 0-55.066 24.641-55.066 55.07v99.121c0 30.238 24.641 55.066 55.066 55.066h397.79c30.238 0 55.066-24.641 55.066-55.066v-99.121c-0.18359-30.43-24.824-55.07-55.25-55.07z"/>
  <path d="m559.07 328.54h-59.734c-3.5469 0-6.3477-2.8008-6.3477-6.3477s2.8008-6.3477 6.3477-6.3477h59.734c3.5469 0 6.3477 2.8008 6.3477 6.3477s-2.8008 6.3477-6.3477 6.3477z"/>
  <path d="m230.54 272.54h-22.961l16.238-16.238c2.9883-2.9883 2.9883-7.6523 0-10.641s-7.6523-2.9883-10.641 0l-16.238 16.238v-22.961c0-4.1055-3.3594-7.4648-7.4648-7.4648s-7.4648 3.3594-7.4648 7.4648v22.961l-16.238-16.238c-2.9883-2.9883-7.6523-2.9883-10.641 0s-2.9883 7.6523 0 10.641l16.238 16.238h-22.965c-4.1055 0-7.4648 3.3594-7.4648 7.4648s3.3594 7.4648 7.4648 7.4648h22.961l-16.238 16.238c-2.9883 2.9883-2.9883 7.6523 0 10.641 1.4922 1.4922 3.3594 2.2383 5.2266 2.2383 1.8672 0 3.7344-0.74609 5.2266-2.2383l16.238-16.238v22.961c0 4.1055 3.3594 7.4648 7.4648 7.4648 4.1055 0 7.4648-3.3594 7.4648-7.4648v-22.961l16.238 16.238c1.4922 1.4922 3.3594 2.2383 5.2266 2.2383 1.8672 0 3.7344-0.74609 5.2266-2.2383 2.9883-2.9883 2.9883-7.6523 0-10.641l-16.238-16.238h23.34c4.1055 0 7.4648-3.3594 7.4648-7.4648s-3.3594-7.4648-7.4648-7.4648z"/>
  <path d="m344.4 272.54h-22.961l16.238-16.238c2.9883-2.9883 2.9883-7.6523 0-10.641s-7.6523-2.9883-10.641 0l-16.238 16.238 0.003906-22.961c0-4.1055-3.3594-7.4648-7.4648-7.4648-4.1055 0-7.4648 3.3594-7.4648 7.4648v22.961l-16.238-16.238c-2.9883-2.9883-7.6523-2.9883-10.641 0-2.9883 2.9883-2.9883 7.6523 0 10.641l16.238 16.238h-22.965c-4.1055 0-7.4648 3.3594-7.4648 7.4648s3.3594 7.4648 7.4648 7.4648h22.961l-16.238 16.238c-2.9883 2.9883-2.9883 7.6523 0 10.641 1.4922 1.4922 3.3594 2.2383 5.2266 2.2383 1.8672 0 3.7344-0.74609 5.2266-2.2383l16.238-16.238v22.961c0 4.1055 3.3594 7.4648 7.4648 7.4648s7.4648-3.3594 7.4648-7.4648v-22.961l16.238 16.238c1.4922 1.4922 3.3594 2.2383 5.2266 2.2383 1.8672 0 3.7344-0.74609 5.2266-2.2383 2.9883-2.9883 2.9883-7.6523 0-10.641l-16.238-16.238h23.336c4.1055 0 7.4648-3.3594 7.4648-7.4648 0.003907-4.1055-3.3555-7.4648-7.4648-7.4648z"/>
  <path d="m458.27 272.54h-22.961l16.238-16.238c2.9883-2.9883 2.9883-7.6523 0-10.641s-7.6523-2.9883-10.641 0l-16.238 16.238 0.003907-22.961c0-4.1055-3.3594-7.4648-7.4648-7.4648s-7.4648 3.3594-7.4648 7.4648v22.961l-16.238-16.238c-2.9883-2.9883-7.6523-2.9883-10.641 0s-2.9883 7.6523 0 10.641l16.238 16.238h-22.965c-4.1055 0-7.4648 3.3594-7.4648 7.4648s3.3594 7.4648 7.4648 7.4648h22.961l-16.238 16.238c-2.9883 2.9883-2.9883 7.6523 0 10.641 1.4922 1.4922 3.3594 2.2383 5.2266 2.2383 1.8672 0 3.7344-0.74609 5.2266-2.2383l16.238-16.238v22.961c0 4.1055 3.3594 7.4648 7.4648 7.4648s7.4648-3.3594 7.4648-7.4648v-22.961l16.238 16.238c1.4922 1.4922 3.3594 2.2383 5.2266 2.2383 1.8672 0 3.7344-0.74609 5.2266-2.2383 2.9883-2.9883 2.9883-7.6523 0-10.641l-16.238-16.238h23.336c4.1055 0 7.4648-3.3594 7.4648-7.4648 0.003906-4.1055-3.3555-7.4648-7.4648-7.4648z"/>
  <use x="70" y="588" xlink:href="#w"/>
  <use x="76.851562" y="588" xlink:href="#c"/>
  <use x="81.453125" y="588" xlink:href="#b"/>
  <use x="87.78125" y="588" xlink:href="#f"/>
  <use x="94.082031" y="588" xlink:href="#d"/>
  <use x="98.542969" y="588" xlink:href="#b"/>
  <use x="104.871094" y="588" xlink:href="#j"/>
  <use x="114.804688" y="588" xlink:href="#i"/>
  <use x="121.484375" y="588" xlink:href="#h"/>
  <use x="130.816406" y="588" xlink:href="#g"/>
  <use x="138.039062" y="588" xlink:href="#e"/>
  <use x="144.683594" y="588" xlink:href="#v"/>
  <use x="151.367188" y="588" xlink:href="#b"/>
  <use x="157.695312" y="588" xlink:href="#u"/>
  <use x="160.894531" y="588" xlink:href="#a"/>
  <use x="170.554688" y="588" xlink:href="#t"/>
  <use x="176.921875" y="588" xlink:href="#c"/>
  <use x="181.527344" y="588" xlink:href="#a"/>
  <use x="187.9375" y="588" xlink:href="#s"/>
  <use x="191.136719" y="588" xlink:href="#f"/>
  <use x="197.4375" y="588" xlink:href="#e"/>
  <use x="204.078125" y="588" xlink:href="#a"/>
  <use x="70" y="597.332031" xlink:href="#r"/>
  <use x="74.0625" y="597.332031" xlink:href="#c"/>
  <use x="78.664062" y="597.332031" xlink:href="#a"/>
  <use x="85.074219" y="597.332031" xlink:href="#q"/>
  <use x="98.050781" y="597.332031" xlink:href="#d"/>
  <use x="102.511719" y="597.332031" xlink:href="#p"/>
  <use x="109.15625" y="597.332031" xlink:href="#b"/>
  <use x="118.734375" y="597.332031" xlink:href="#o"/>
  <use x="126.546875" y="597.332031" xlink:href="#a"/>
  <use x="132.960938" y="597.332031" xlink:href="#n"/>
  <use x="139.601562" y="597.332031" xlink:href="#e"/>
  <use x="149.496094" y="597.332031" xlink:href="#m"/>
  <use x="156.335938" y="597.332031" xlink:href="#c"/>
  <use x="160.941406" y="597.332031" xlink:href="#a"/>
  <use x="167.351562" y="597.332031" xlink:href="#l"/>
  <use x="170.550781" y="597.332031" xlink:href="#b"/>
  <use x="176.882812" y="597.332031" xlink:href="#k"/>
  <use x="182.414062" y="597.332031" xlink:href="#d"/>
 </g>
</svg>
